<?xml version="1.0" encoding="UTF-8" standalone="no"?>
<!-- Created with Inkscape (http://www.inkscape.org/) -->

<svg
   xmlns:dc="http://purl.org/dc/elements/1.1/"
   xmlns:cc="http://creativecommons.org/ns#"
   xmlns:rdf="http://www.w3.org/1999/02/22-rdf-syntax-ns#"
   xmlns:svg="http://www.w3.org/2000/svg"
   xmlns="http://www.w3.org/2000/svg"
   version="1.1"
   width="100%"
   height="100%"
   viewBox="0 0 64 64"
   id="Layer_1"
   xml:space="preserve"><defs
   id="defs15" />
	
	
	<path
   d="M 35.836813,0.3742523 C 35.420916,0.23472637 35.115835,0.17864794 34.824439,0.21970154 33.617801,0.09251975 32.424848,0.06246998 31.231895,0.03242021 30.532925,2.8055146 30.014535,5.4541079 29.496144,8.1027014 L 27.747767,8.3490228 C 26.595867,8.6103691 25.5411,8.8580309 24.500016,9.2028247 23.639513,9.4231175 22.806379,9.8376742 21.973243,10.252231 20.104387,8.2371469 18.138398,6.2357474 16.283227,4.3177952 L 16.172411,4.2343478 C 15.616988,4.5107192 15.061565,4.7870902 14.616958,5.146909 13.700377,5.6722822 12.89461,6.2811032 12.10253,6.9870561 10.838473,7.8585636 9.6989177,8.9106506 8.6838633,10.143317 l 0.013685,0.09713 c 1.5076977,2.264086 2.9182637,4.541857 4.4259607,6.805944 -0.584133,0.775715 -1.084817,1.440614 -1.558134,2.299778 -0.66758,0.886532 -1.210659,1.953644 -1.6566063,3.007072 C 9.672111,22.782824 9.5325846,23.198722 9.4067436,23.71175 6.618623,23.609257 3.8305037,23.506763 1.0560689,23.501402 0.73462301,24.735409 0.41317733,25.969416 0.20254796,27.28687 0.08771032,29.284249 -0.04081181,31.184495 0.02493013,33.057373 l 7.98683357,1.846567 0.1915834,1.359849 c 0.1505298,1.068452 0.4118758,2.220352 0.8674865,3.344883 0.2339771,0.957636 0.6622187,1.887903 1.0904604,2.818169 -2.0150845,1.868857 -3.9330367,3.724029 -5.9344363,5.690016 1.57612,2.749747 3.6105312,5.236807 5.9089693,7.48855 l 0.09713,-0.01369 c 2.264086,-1.507698 4.541856,-2.918264 6.903074,-4.439645 0.664899,0.500685 1.316114,0.904238 1.981014,1.404923 0.983664,0.653895 2.147908,1.18329 3.409284,1.699 0.318765,0.15321 0.734662,0.292736 1.164244,0.529394 -0.116178,2.690988 -0.121539,5.465422 -0.1269,8.239856 1.136875,0.335131 2.260064,0.57313 3.466703,0.700312 0.305079,0.05608 0.915241,0.168234 1.913931,0.225653 1.414586,0.196945 2.801803,0.199625 4.091888,0.215991 0.69897,-2.773094 1.314493,-5.435372 1.819199,-8.181097 l 1.262717,-0.177899 c 1.165584,-0.164215 2.220352,-0.411875 3.261435,-0.75667 0.943952,-0.331109 1.874218,-0.759351 2.804485,-1.187592 0,0 0.01368,0.09713 0.110815,0.08345 1.868856,2.015084 3.834845,4.016484 5.703701,6.031568 0.444606,-0.359818 0.902898,-0.622505 1.264057,-0.871507 0.916582,-0.525373 1.722348,-1.134195 2.528113,-1.743015 1.33382,-1.079456 2.556823,-2.24236 3.669009,-3.488711 -1.42425,-2.374903 -2.931947,-4.63899 -4.453329,-7.000207 0.500685,-0.6649 0.904238,-1.316115 1.404924,-1.981014 0.556762,-0.96998 1.099841,-2.037091 1.559473,-2.993387 -0.01368,-0.09713 0.06976,-0.207948 0.05608,-0.30508 0.153211,-0.318766 0.292737,-0.734663 0.445947,-1.053428 2.788119,0.102493 5.562554,0.107855 8.350674,0.210349 0.321445,-1.234008 0.545759,-2.45433 0.756388,-3.771784 0.05608,-0.305081 0.112157,-0.610162 0.154551,-1.012374 0.05608,-0.305081 0.01502,-0.596476 0.154551,-1.012374 0.01637,-1.290085 0.129862,-2.593855 0.06278,-3.773124 -2.675963,-0.712654 -5.421689,-1.217361 -8.083966,-1.832883 l -0.164214,-1.165585 c -0.164215,-1.165584 -0.439244,-2.414616 -0.894856,-3.539146 -0.220291,-0.860504 -0.63485,-1.693638 -0.952275,-2.540458 2.015084,-1.868856 4.016484,-3.834844 5.920752,-5.787149 l 0.09713,-0.01368 C 58.298221,13.554655 56.360942,11.053911 53.86824,8.8295377 51.493337,10.253788 49.22925,11.761485 46.965164,13.269182 46.189448,12.685049 45.413732,12.100918 44.651701,11.613917 43.681721,11.057153 42.711742,10.50039 41.671999,10.151575 41.339549,9.9012326 40.923652,9.7617071 40.604886,9.6084962 40.610248,6.8340616 40.712742,4.0459422 40.718103,1.2715075 39.484096,0.95006158 38.152957,0.64230039 36.835503,0.43167102 36.530422,0.37559266 36.12821,0.33319869 35.836813,0.3742523 z M 22.88827,39.246951 c -2.048097,-2.584192 -2.84716,-5.443415 -2.410876,-8.6748 0.339151,-3.217701 1.856231,-5.808875 4.440422,-7.856971 2.500745,-1.937279 5.457099,-2.750028 8.577668,-2.397192 3.231386,0.436283 5.906007,1.842547 7.856972,4.440423 2.048095,2.584192 2.847158,5.443414 2.410876,8.6748 -0.339152,3.217701 -1.856232,5.808876 -4.356976,7.746155 -2.681324,2.061779 -5.540547,2.860844 -8.6748,2.410876 -3.217701,-0.339152 -5.906008,-1.842547 -7.843286,-4.343291 z"
   id="path7" />
	
<metadata
   id="metadata11"><rdf:RDF><cc:Work><dc:format>image/svg+xml</dc:format><dc:type
         rdf:resource="http://purl.org/dc/dcmitype/StillImage" /><cc:license
         rdf:resource="http://creativecommons.org/licenses/publicdomain/" /><dc:publisher><cc:Agent
           rdf:about="http://openclipart.org/"><dc:title>Openclipart</dc:title></cc:Agent></dc:publisher><dc:title></dc:title></cc:Work><cc:License
       rdf:about="http://creativecommons.org/licenses/publicdomain/"><cc:permits
         rdf:resource="http://creativecommons.org/ns#Reproduction" /><cc:permits
         rdf:resource="http://creativecommons.org/ns#Distribution" /><cc:permits
         rdf:resource="http://creativecommons.org/ns#DerivativeWorks" /></cc:License></rdf:RDF></metadata></svg>